# xmcd CD database file
#
# Track frame offsets:
#	182
#	16975
#	30455
#	42420
#	53380
#	65822
#	76067
#	84862
#	95347
#	106967
#	118627
#	130885
#	141525
#	153130
#	163145
#	174852
#	184460
#	195125
#	213645
#	224632
#	234880
#
# Disc length: 3292 seconds
#
# Revision: 2
# Processed by: cddbd v1.4b41PL1 Copyright (c) Steve Scherf et al.
# Submitted via: Feurio! 1.60 - http://www.feurio.com
#
DISCID=150cda15,2d0cda15
DTITLE=Dave Dudley - Here Is It
DYEAR=1900
DGENRE=
TTITLE0=When My Blue Moon Turns To Cold Again
TTITLE1=A Friend Named Wine
TTITLE2=Rollin' On (We Gone)
TTITLE3=I Keep Looking Back
TTITLE4=I Think I'll Cheat A Little Tonight
TTITLE5=Cowboy Boots
TTITLE6=I Just Don't Like This Kind Of Living
TTITLE7=Rollin' Rig
TTITLE8=Blue Bedroom Eyes
TTITLE9=Texas Ruby
TTITLE10=Truckin' Dad
TTITLE11=My Pick 'em Up
TTITLE12=Rodeo Drifter
TTITLE13=Truck Drivin' Son Of A Gun
TTITLE14=Six Days On The Road
TTITLE15=Rollin' On Your Track
TTITLE16=You Don't Have To Be A Baby To Cry
TTITLE17=He Doesn't Live There Anymore
TTITLE18=Get Me Back To Tennessee
TTITLE19=The Night You Broke The News
TTITLE20=How Come It Took So Long To Say Goodbye
EXTD=Dureco
EXTT0=
EXTT1=
EXTT2=
EXTT3=
EXTT4=
EXTT5=
EXTT6=
EXTT7=
EXTT8=
EXTT9=
EXTT10=
EXTT11=
EXTT12=
EXTT13=
EXTT14=
EXTT15=
EXTT16=
EXTT17=
EXTT18=
EXTT19=
EXTT20=
PLAYORDER=
